<?xml version="1.0" encoding="utf-8"?>
<!-- Generator: Adobe Illustrator 16.0.0, SVG Export Plug-In . SVG Version: 6.00 Build 0)  -->
<!DOCTYPE svg PUBLIC "-//W3C//DTD SVG 1.1//EN" "http://www.w3.org/Graphics/SVG/1.1/DTD/svg11.dtd">
<svg version="1.1" id="_x2014_ÎÓÈ_x5F_1" xmlns="http://www.w3.org/2000/svg" xmlns:xlink="http://www.w3.org/1999/xlink"
	 x="0px" y="0px" width="200px" height="200px" viewBox="0 0 200 200" enable-background="new 0 0 200 200" xml:space="preserve">
<g>
	<g>
		<defs>
			<circle id="SVGID_1_" cx="100" cy="100" r="100"/>
		</defs>
		<clipPath id="SVGID_2_">
			<use xlink:href="#SVGID_1_"  overflow="visible"/>
		</clipPath>
		<rect x="0.001" y="0.001" clip-path="url(#SVGID_2_)" fill="#333238" width="200" height="199.999"/>
		<path clip-path="url(#SVGID_2_)" fill="#202025" d="M126.232,44.317c-14.38,9.246-20.603,18.044-22.511,25.666
			c-5.183-4.737-11.139-10.168-18.01-16.41c4.144,14.861-28.875,8.995-28.377,24.378c0.146,4.496,2.057,7.941,4.688,10.566
			c3.393,3.384,17.649,18.068,29.318,30.016l-33.62,33.619c-0.587,0.588-0.513,1.613,0.167,2.293l0.676,0.676L103.443,200H200
			v-81.915L126.232,44.317z"/>
		<path clip-path="url(#SVGID_2_)" fill="#FFFFFF" d="M114.793,98.891c0.678,0.679,0.753,1.705,0.166,2.291l-54.104,54.105
			c-0.587,0.586-1.613,0.513-2.292-0.166l-0.676-0.676c-0.679-0.68-0.753-1.705-0.167-2.293l54.104-54.104
			c0.587-0.588,1.613-0.514,2.292,0.166L114.793,98.891z M126.232,44.317c-42.578,27.376-13.695,50.843-12.784,51.387l0.11,0.011
			c0.053-0.838,0.396-1.619,0.985-2.225c-4.123-4.582-11.084-15.767,1.7-28.75c-2.305,12.385,3.363,13.477,6.206,17.757
			c2.189-1.868,5.795-8.074,10.221-8.894c-4.393,4.287-1.472,13.078-5.258,18.069c-1.404,1.851-2.972,2.729-4.39,3.103
			c-0.125,0.524-0.373,1.007-0.734,1.404c4.589-0.961,19.955-5.146,20.378-18.228C143.164,62.568,122.088,59.179,126.232,44.317z
			 M121.583,91.424c-0.632-0.633-1.566-1.01-2.5-1.01c-0.783,0-1.485,0.268-1.977,0.756l-2.16,2.65
			c-0.018,0.018-0.033,0.037-0.05,0.055c-0.493,0.518-0.779,1.18-0.82,1.889c-0.003,0.059-0.008,0.117-0.008,0.178
			c0,0.8,0.312,1.553,0.878,2.119c0.566,0.566,1.319,0.879,2.12,0.879c0.801,0,1.554-0.312,2.12-0.879l0.02-0.018l2.047-1.666
			l0.585-0.476c0.286-0.29,0.482-0.632,0.604-1.001C122.832,93.722,122.433,92.273,121.583,91.424z"/>
		<path clip-path="url(#SVGID_2_)" fill="#FFFFFF" d="M85.207,98.891c-0.678,0.679-0.753,1.705-0.166,2.291l54.104,54.105
			c0.587,0.586,1.613,0.513,2.292-0.166l0.676-0.676c0.679-0.68,0.753-1.705,0.167-2.293L88.175,98.049
			c-0.587-0.588-1.613-0.514-2.292,0.166L85.207,98.891z M73.768,44.317c42.578,27.376,13.695,50.843,12.784,51.387l-0.11,0.011
			c-0.053-0.838-0.396-1.619-0.985-2.225c4.123-4.582,11.084-15.767-1.7-28.75c2.305,12.385-3.363,13.477-6.206,17.757
			c-2.189-1.868-5.795-8.074-10.221-8.894c4.393,4.287,1.472,13.078,5.258,18.069c1.404,1.851,2.972,2.729,4.39,3.103
			c0.125,0.524,0.373,1.007,0.734,1.404c-4.589-0.961-19.955-5.146-20.378-18.228C56.836,62.568,77.912,59.179,73.768,44.317z
			 M78.417,91.424c0.632-0.633,1.566-1.01,2.5-1.01c0.783,0,1.485,0.268,1.977,0.756l2.16,2.65c0.018,0.018,0.033,0.037,0.05,0.055
			c0.493,0.518,0.779,1.18,0.82,1.889c0.003,0.059,0.008,0.117,0.008,0.178c0,0.8-0.312,1.553-0.878,2.119
			c-0.566,0.566-1.319,0.879-2.12,0.879c-0.801,0-1.554-0.312-2.12-0.879l-0.02-0.018l-2.047-1.666l-0.585-0.476
			c-0.286-0.29-0.482-0.632-0.604-1.001C77.168,93.722,77.567,92.273,78.417,91.424z"/>
	</g>
</g>
<g>
	<path fill="#FFFFFF" d="M142.279,152.152L88.175,98.049c-0.587-0.588-1.613-0.514-2.292,0.166l-0.676,0.676
		c-0.678,0.679-0.753,1.705-0.166,2.291l54.104,54.105c0.587,0.586,1.613,0.513,2.292-0.166l0.676-0.676
		C142.792,153.766,142.866,152.74,142.279,152.152z"/>
	<path fill="#FFFFFF" d="M85.931,95.941c0-0.061-0.005-0.119-0.008-0.178c-0.041-0.709-0.327-1.371-0.82-1.889
		c-0.017-0.018-0.032-0.037-0.05-0.055l-2.16-2.65c-0.492-0.488-1.194-0.756-1.977-0.756c-0.933,0-1.867,0.377-2.5,1.01
		c-0.85,0.85-1.248,2.298-0.859,3.477c0.122,0.369,0.317,0.711,0.604,1.001l0.585,0.476l2.047,1.666l0.02,0.018
		c0.566,0.566,1.319,0.879,2.12,0.879c0.801,0,1.554-0.312,2.12-0.879C85.619,97.494,85.931,96.741,85.931,95.941z"/>
</g>
</svg>
