<?xml version="1.0" encoding="utf-8"?>
<!-- Generator: Adobe Illustrator 16.0.0, SVG Export Plug-In . SVG Version: 6.00 Build 0)  -->
<!DOCTYPE svg PUBLIC "-//W3C//DTD SVG 1.1//EN" "http://www.w3.org/Graphics/SVG/1.1/DTD/svg11.dtd">
<svg version="1.1" id="_x2014_ÎÓÈ_x5F_1" xmlns="http://www.w3.org/2000/svg" xmlns:xlink="http://www.w3.org/1999/xlink"
	 x="0px" y="0px" width="200px" height="200px" viewBox="0 0 200 200" enable-background="new 0 0 200 200" xml:space="preserve">
<g>
	<g>
		<g>
			<defs>
				<circle id="SVGID_1_" cx="100" cy="100" r="100"/>
			</defs>
			<clipPath id="SVGID_2_">
				<use xlink:href="#SVGID_1_"  overflow="visible"/>
			</clipPath>
			<rect x="0.001" y="0.001" clip-path="url(#SVGID_2_)" fill="#333238" width="200" height="199.999"/>
			<polygon clip-path="url(#SVGID_2_)" fill="#202025" points="66,151.5 121.5,207.5 237.83,150.903 127.5,50 			"/>
			<path clip-path="url(#SVGID_2_)" fill="#FFFFFF" d="M151,100c7.014,35.066-22.833,64.75-51,64.75
				c-28.167,0-59.673-30.057-51-64.75c5.5-22,22.833-64.75,51-64.75C128.167,35.25,146.5,77.5,151,100z"/>
			<g clip-path="url(#SVGID_2_)">
				<defs>
					<path id="SVGID_3_" d="M151,100c7.014,35.066-22.833,64.75-51,64.75c-28.167,0-59.673-30.057-51-64.75
						c5.5-22,22.833-64.75,51-64.75C128.167,35.25,146.5,77.5,151,100z"/>
				</defs>
				<clipPath id="SVGID_4_">
					<use xlink:href="#SVGID_3_"  overflow="visible"/>
				</clipPath>
				<polyline clip-path="url(#SVGID_4_)" fill="none" stroke="#333238" stroke-width="4" stroke-miterlimit="10" points="47,92 
					71.5,78 107,98.5 122.5,72.5 159.5,96.5 				"/>
			</g>
		</g>
	</g>
</g>
</svg>
