<?xml version="1.0" encoding="utf-8"?>
<!-- Generator: Adobe Illustrator 16.0.0, SVG Export Plug-In . SVG Version: 6.00 Build 0)  -->
<!DOCTYPE svg PUBLIC "-//W3C//DTD SVG 1.1//EN" "http://www.w3.org/Graphics/SVG/1.1/DTD/svg11.dtd">
<svg version="1.1" id="_x2014_ÎÓÈ_x5F_1" xmlns="http://www.w3.org/2000/svg" xmlns:xlink="http://www.w3.org/1999/xlink"
	 x="0px" y="0px" width="200px" height="200px" viewBox="0 0 200 200" enable-background="new 0 0 200 200" xml:space="preserve">
<g>
	<g>
		<g>
			<g>
				<g>
					<defs>
						<circle id="SVGID_1_" cx="100" cy="100" r="100"/>
					</defs>
					<clipPath id="SVGID_2_">
						<use xlink:href="#SVGID_1_"  overflow="visible"/>
					</clipPath>
					<rect x="0.001" y="0.001" clip-path="url(#SVGID_2_)" fill="#333238" width="200" height="199.999"/>
				</g>
			</g>
		</g>
	</g>
</g>
<circle fill="#FFFFFF" cx="100" cy="100" r="31.5"/>
<path fill="none" stroke="#FFFFFF" stroke-width="8" stroke-linecap="round" stroke-linejoin="round" stroke-miterlimit="10" d="
	M192.5,100.5c-16,0-23.5-0.5-36-0.5c0,31.205-25.295,56.5-56.5,56.5c-31.204,0-56.5-25.295-56.5-56.5c-15,0-2.796,0-34,0"/>
<line fill="none" stroke="#FFFFFF" stroke-width="8" stroke-linecap="round" stroke-linejoin="round" stroke-miterlimit="10" x1="100" y1="156.5" x2="100" y2="193.5"/>
<line fill="none" stroke="#FFFFFF" stroke-width="8" stroke-linecap="round" stroke-linejoin="round" stroke-miterlimit="10" x1="100" y1="16.5" x2="100" y2="53.5"/>
<line fill="none" stroke="#FFFFFF" stroke-width="8" stroke-linecap="round" stroke-linejoin="round" stroke-miterlimit="10" x1="100" y1="16.5" x2="100" y2="53.5"/>
<line fill="none" stroke="#FFFFFF" stroke-width="8" stroke-linecap="round" stroke-linejoin="round" stroke-miterlimit="10" x1="159.778" y1="40.848" x2="133.615" y2="67.011"/>
<line fill="none" stroke="#FFFFFF" stroke-width="8" stroke-linecap="round" stroke-linejoin="round" stroke-miterlimit="10" x1="40.515" y1="41.554" x2="66.678" y2="67.717"/>
</svg>
